<svg xmlns="http://www.w3.org/2000/svg" version="1.1" xmlns:xlink="http://www.w3.org/1999/xlink" xmlns:svgjs="http://svgjs.dev/svgjs" width="2000" height="2250" viewBox="0 0 2000 2250"><g transform="matrix(1,0,0,1,0,0)"><svg viewBox="0 0 320 360" data-background-color="#4b91f1" preserveAspectRatio="xMidYMid meet" height="2250" width="2000" xmlns="http://www.w3.org/2000/svg" xmlns:xlink="http://www.w3.org/1999/xlink"><g id="tight-bounds" transform="matrix(1,0,0,1,0,0)"><svg viewBox="0 0 320 360" height="360" width="320"><g><svg></svg></g><g><svg viewBox="0 0 320 360" height="360" width="320"><g><path xmlns="http://www.w3.org/2000/svg" d="M320 141.95l-19.957-19.957v-28.224l-53.812-53.812h-28.223l-19.958-19.957h-76.1l-19.957 19.957h-28.224l-53.812 53.812v28.224l-19.957 19.957v76.104l19.957 19.958v28.223l53.816 53.808h28.224l19.957 19.957h76.104l19.958-19.957h28.223l53.812-53.812v-28.224l19.949-19.957zM244.374 44.437l51.189 51.189v21.887l-73.076-73.076zM295.563 123.849v112.306l-79.408 79.408h-112.306l-79.412-79.412v-112.302l79.412-79.412h112.306zM123.807 24.48h72.39l15.478 15.477h-103.346zM24.437 95.626l51.189-51.189h21.887l-73.076 73.076zM4.484 216.197v-72.394l15.477-15.478v103.342zM75.626 315.563l-51.189-51.189v-21.887l73.076 73.076zM196.197 335.52h-72.39l-15.478-15.477h103.342zM295.563 264.374l-51.189 51.189h-21.887l73.076-73.076zM315.52 216.197l-15.477 15.478v-103.346l15.477 15.478z" fill="#ffffff" fill-rule="nonzero" stroke="none" stroke-width="1" stroke-linecap="butt" stroke-linejoin="miter" stroke-miterlimit="10" stroke-dasharray="" stroke-dashoffset="0" font-family="none" font-weight="none" font-size="none" text-anchor="none" style="mix-blend-mode: normal" data-fill-palette-color="tertiary"></path></g><g transform="matrix(1,0,0,1,70,90)"><svg viewBox="0 0 180 180" height="180" width="180"><g><svg viewBox="0 0 180 180" height="180" width="180"><g><svg viewBox="0 0 180 180" height="180" width="180"><g id="textblocktransform"><svg viewBox="0 0 180 180" height="180" width="180" id="textblock"><g><svg viewBox="0 0 180 180" height="180" width="180"><g transform="matrix(1,0,0,1,53.373550988966606,47.57359312880715)"><svg viewBox="0 0 73.25289802206679 84.8528137423857" height="84.8528137423857" width="73.25289802206679"><g><svg xmlns="http://www.w3.org/2000/svg" xmlns:xlink="http://www.w3.org/1999/xlink" version="1.1" x="0" y="0" viewBox="9.63800048828125 3.246999979019165 80.7239990234375 93.50699615478516" enable-background="new 0 0 100 100" xml:space="preserve" height="84.8528137423857" width="73.25289802206679" class="icon-o-0" data-fill-palette-color="accent" id="o-0"><g fill="#ffffff" data-fill-palette-color="accent"><g fill="#ffffff" data-fill-palette-color="accent"><polygon points="36.703,11.011 9.638,26.636 9.638,38.757 36.703,23.131 63.767,38.757 63.767,26.636   " fill="#ffffff" data-fill-palette-color="accent"></polygon></g><g fill="#ffffff" data-fill-palette-color="accent"><polygon points="63.298,89.092 36.233,73.467 36.233,61.348 63.298,76.973 90.362,61.348 90.362,73.467   " fill="#ffffff" data-fill-palette-color="accent"></polygon></g><g fill="#ffffff" data-fill-palette-color="accent"><polygon points="9.638,42.012 36.703,26.386 47.198,32.446 20.134,48.072 20.134,79.324 9.638,73.264   " fill="#ffffff" data-fill-palette-color="accent"></polygon></g><g fill="#ffffff" data-fill-palette-color="accent"><polygon points="77.083,18.872 50.018,3.247 39.522,9.307 66.586,24.932 66.586,56.184 77.083,50.124   " fill="#ffffff" data-fill-palette-color="accent"></polygon></g><g fill="#ffffff" data-fill-palette-color="accent"><polygon points="23.01,81.127 23.011,49.876 33.507,43.816 33.507,75.068 60.571,90.693 50.075,96.754   " fill="#ffffff" data-fill-palette-color="accent"></polygon></g><g fill="#ffffff" data-fill-palette-color="accent"><polygon points="90.362,58.092 90.362,26.84 79.866,20.78 79.866,52.031 52.802,67.658 63.298,73.719   " fill="#ffffff" data-fill-palette-color="accent"></polygon></g></g></svg></g></svg></g><g><path d="M18.121 123.118L15.922 123.847 13.842 117.574 6.646 119.961 5.771 117.324 23.029 111.601 26.274 121.386 24.075 122.115 21.704 114.967 16.041 116.845ZM41.337 143.01L32.568 150.014C30.73 151.482 28.95 152.12 27.231 151.928 25.511 151.735 23.978 150.796 22.63 149.108V149.108C21.308 147.452 20.732 145.773 20.904 144.07 21.075 142.367 22.044 140.811 23.809 139.4V139.4L32.75 132.26 34.484 134.43 25.567 141.552C24.36 142.516 23.713 143.512 23.627 144.539 23.531 145.565 23.865 146.556 24.628 147.512V147.512C26.347 149.665 28.403 149.785 30.796 147.874V147.874L39.603 140.84ZM49.13 161.539L45.43 168.191 43.003 166.841 51.84 150.952 54.724 152.556 54.933 161.381C54.968 163.023 54.988 164.534 54.994 165.914 54.996 167.299 54.988 168.263 54.97 168.804V168.804L54.937 169.646C55.637 168.169 56.757 166.045 58.297 163.276V163.276L62.006 156.606 64.434 157.957 55.597 173.846 52.722 172.247 52.463 163.428C52.419 161.843 52.398 160.354 52.399 158.963 52.403 157.58 52.417 156.586 52.441 155.979V155.979L52.47 155.101C51.719 156.74 50.605 158.887 49.13 161.539ZM80.846 179.921V179.921L75.155 179.293 77.15 161.221 82.781 161.843C85.466 162.139 87.574 163.213 89.105 165.063 90.636 166.914 91.259 169.128 90.975 171.707V171.707C90.679 174.385 89.628 176.502 87.822 178.058 86.009 179.613 83.684 180.234 80.846 179.921ZM82.471 164.2V164.2L79.71 163.895 78.233 177.272 81.074 177.585C83.127 177.812 84.763 177.34 85.982 176.17 87.194 175.006 87.911 173.413 88.134 171.393V171.393C88.339 169.533 87.929 167.92 86.902 166.556 85.875 165.198 84.398 164.413 82.471 164.2ZM115.888 176.733V176.733L109.144 178.57 104.365 161.028 110.122 159.459C111.96 158.959 113.525 158.993 114.817 159.563 116.109 160.132 116.946 161.12 117.329 162.527V162.527C117.594 163.501 117.552 164.427 117.203 165.305 116.859 166.182 116.29 166.839 115.495 167.277V167.277C116.497 167.191 117.42 167.415 118.265 167.947 119.112 168.485 119.698 169.351 120.023 170.544V170.544C120.401 171.931 120.235 173.192 119.526 174.328 118.817 175.464 117.604 176.265 115.888 176.733ZM110.513 161.733V161.733L107.649 162.513 109.114 167.893 111.543 167.231C112.84 166.878 113.735 166.35 114.23 165.647 114.718 164.946 114.847 164.173 114.616 163.328V163.328C114.413 162.58 113.963 162.047 113.267 161.731 112.579 161.42 111.661 161.42 110.513 161.733ZM112.894 169.213V169.213L109.71 170.08 111.221 175.624 114.656 174.688C116.862 174.087 117.717 172.877 117.221 171.058V171.058C116.981 170.174 116.493 169.566 115.757 169.233 115.029 168.898 114.074 168.891 112.894 169.213ZM130.771 149.723L140.534 165.061 138.216 166.537 128.453 151.199ZM148.31 131.745L150.098 133.217 147.065 136.903 159.316 146.983 157.551 149.128 145.3 139.048 142.28 142.718 140.491 141.246ZM170.342 115.271V115.271C171.837 115.836 172.815 116.813 173.277 118.202 173.735 119.582 173.646 121.114 173.011 122.796V122.796C172.305 124.666 171.357 126.078 170.169 127.029V127.029L167.467 126.009C168.962 125.059 170.04 123.708 170.702 121.957V121.957C171.051 121.031 171.112 120.218 170.883 119.517 170.661 118.818 170.171 118.326 169.415 118.04V118.04C168.958 117.868 168.482 117.871 167.986 118.048 167.484 118.223 167.067 118.458 166.733 118.754 166.4 119.05 165.924 119.506 165.305 120.123V120.123C164.94 120.485 164.683 120.738 164.536 120.883 164.382 121.025 164.119 121.258 163.747 121.582 163.377 121.899 163.08 122.127 162.857 122.264 162.633 122.401 162.333 122.563 161.955 122.749 161.578 122.935 161.231 123.04 160.915 123.064 160.599 123.087 160.238 123.087 159.833 123.062 159.43 123.032 159.019 122.937 158.6 122.779V122.779C157.155 122.234 156.209 121.276 155.761 119.906 155.32 118.539 155.414 117.021 156.045 115.351V115.351C156.621 113.824 157.381 112.625 158.325 111.752V111.752L160.896 112.723C159.764 113.582 158.929 114.724 158.39 116.15V116.15C158.041 117.076 157.972 117.883 158.184 118.57 158.396 119.258 158.837 119.728 159.506 119.981 160.182 120.236 160.822 120.177 161.427 119.805 162.023 119.437 162.759 118.804 163.634 117.905V117.905C164.208 117.314 164.678 116.863 165.046 116.552 165.416 116.234 165.895 115.893 166.482 115.529 167.07 115.165 167.685 114.965 168.328 114.929 168.964 114.89 169.636 115.004 170.342 115.271Z" fill="#ffffff" data-fill-palette-color="primary"></path><path d="M12.327 59.406L14.517 60.131 12.455 66.357 19.596 68.721 18.729 71.339 1.592 65.665 4.808 55.955 6.997 56.68 4.649 63.772 10.266 65.632ZM23.634 27.323L32.342 34.274C34.171 35.734 35.178 37.316 35.365 39.022 35.557 40.732 34.986 42.423 33.651 44.095V44.095C32.337 45.741 30.836 46.669 29.147 46.877 27.467 47.085 25.747 46.486 23.986 45.08V45.08L15.113 37.998 16.834 35.843 25.69 42.912C26.887 43.867 27.994 44.276 29.01 44.138 30.018 44.001 30.901 43.457 31.66 42.506V42.506C33.366 40.369 33.033 38.354 30.661 36.461V36.461L21.914 29.479ZM48.385 21.504L52.059 28.101 49.649 29.443 40.868 13.671 43.724 12.081 51.279 16.518C52.684 17.35 53.969 18.126 55.136 18.847 56.302 19.567 57.113 20.076 57.569 20.373V20.373L58.259 20.849C57.376 19.482 56.169 17.426 54.641 14.68V14.68L50.953 8.056 53.362 6.715 62.143 22.486 59.287 24.077 51.721 19.681C50.359 18.885 49.092 18.122 47.92 17.39 46.75 16.663 45.918 16.132 45.425 15.794V15.794L44.694 15.306C45.688 16.803 46.918 18.869 48.385 21.504ZM82.296 18.01V18.01L76.655 18.636 74.663 0.695 80.255 0.074C82.913-0.221 85.187 0.361 87.078 1.82 88.963 3.285 90.047 5.294 90.33 7.846V7.846C90.625 10.51 90.065 12.792 88.648 14.692 87.237 16.59 85.12 17.696 82.296 18.01ZM80.455 2.423V2.423L77.714 2.728 79.189 16.014 82.01 15.701C84.056 15.474 85.54 14.66 86.461 13.259 87.382 11.866 87.732 10.165 87.509 8.159V8.159C87.305 6.318 86.556 4.847 85.264 3.746 83.978 2.651 82.376 2.21 80.455 2.423ZM112.246 20.78V20.78L105.549 18.96 110.283 1.541 115.993 3.093C117.819 3.589 119.142 4.406 119.962 5.543 120.782 6.681 121.002 7.949 120.621 9.349V9.349C120.36 10.311 119.86 11.079 119.122 11.654 118.382 12.236 117.561 12.515 116.66 12.492V12.492C117.563 12.918 118.24 13.573 118.693 14.458 119.147 15.336 119.212 16.372 118.887 17.566V17.566C118.514 18.94 117.741 19.936 116.569 20.552 115.39 21.167 113.949 21.243 112.246 20.78ZM115.193 5.234V5.234L112.348 4.461 110.893 9.813 113.293 10.465C114.59 10.818 115.623 10.814 116.393 10.455 117.167 10.105 117.669 9.507 117.899 8.661V8.661C118.1 7.919 117.984 7.24 117.549 6.623 117.114 6.006 116.328 5.543 115.193 5.234ZM113.459 12.838V12.838L110.304 11.981 108.808 17.487 112.224 18.415C114.411 19.01 115.75 18.404 116.241 16.597V16.597C116.481 15.713 116.371 14.946 115.911 14.294 115.444 13.641 114.627 13.155 113.459 12.838ZM142.876 15.577L133.182 30.805 130.873 29.334 140.566 14.107ZM165.739 38.261L163.957 39.726 160.945 36.062 148.783 46.061 147.032 43.931 159.193 33.931 156.2 30.291 157.982 28.826ZM166.819 70.427V70.427C165.337 70.986 163.971 70.897 162.721 70.16 161.468 69.432 160.527 68.233 159.898 66.562V66.562C159.2 64.71 158.981 63.039 159.241 61.548V61.548L161.925 60.537C161.434 62.229 161.515 63.942 162.168 65.675V65.675C162.514 66.595 163.001 67.243 163.63 67.621 164.262 67.99 164.953 68.033 165.704 67.751V67.751C166.154 67.581 166.507 67.266 166.762 66.805 167.02 66.351 167.176 65.903 167.231 65.461 167.28 65.021 167.335 64.371 167.397 63.512V63.512C167.432 62.999 167.457 62.639 167.473 62.433 167.494 62.225 167.536 61.881 167.598 61.4 167.666 60.917 167.739 60.55 167.816 60.3 167.893 60.049 168.013 59.733 168.176 59.35 168.339 58.967 168.528 58.663 168.744 58.439 168.966 58.213 169.234 57.976 169.548 57.729 169.871 57.486 170.242 57.286 170.661 57.128V57.128C172.094 56.588 173.426 56.683 174.658 57.412 175.884 58.143 176.808 59.334 177.43 60.986V60.986C178.002 62.506 178.224 63.902 178.096 65.172V65.172L175.534 66.137C175.819 64.751 175.694 63.348 175.159 61.927V61.927C174.812 61.008 174.334 60.363 173.723 59.993 173.118 59.621 172.481 59.56 171.812 59.813 171.142 60.065 170.705 60.526 170.5 61.196 170.296 61.866 170.159 62.821 170.09 64.062V64.062C170.056 64.882 170.003 65.527 169.93 65.998 169.866 66.472 169.733 67.04 169.532 67.701 169.329 68.357 169.001 68.909 168.549 69.358 168.103 69.804 167.526 70.161 166.819 70.427Z" fill="#ffffff" data-fill-palette-color="primary"></path><path d="M2.053 92.179C2.053 88.344 5.163 85.234 8.999 85.234 12.835 85.234 15.944 88.344 15.944 92.179 15.944 96.015 12.835 99.125 8.999 99.125 5.163 99.125 2.053 96.015 2.053 92.179ZM164.517 92.179C164.517 88.344 167.626 85.234 171.462 85.234 175.298 85.234 178.408 88.344 178.408 92.179 178.408 96.015 175.298 99.125 171.462 99.125 167.626 99.125 164.517 96.015 164.517 92.179Z" fill="#ffffff" data-fill-palette-color="primary"></path></g></svg></g></svg></g></svg></g><g></g></svg></g></svg></g></svg></g><defs></defs></svg><rect width="320" height="360" fill="none" stroke="none" visibility="hidden"></rect></g></svg></g></svg>